{
    "asset" : {
        "generator" : "Khronos glTF Blender I/O v1.8.19",
        "version" : "2.0"
    },
    "scene" : 0,
    "scenes" : [
        {
            "name" : "Scene",
            "nodes" : [
                0
            ]
        }
    ],
    "nodes" : [
        {
            "mesh" : 0,
            "name" : "Cube",
            "rotation" : [
                0,
                -0.7071068286895752,
                0,
                0.7071068286895752
            ]
        }
    ],
    "animations" : [
        {
            "channels" : [
                {
                    "sampler" : 0,
                    "target" : {
                        "node" : 0,
                        "path" : "rotation"
                    }
                }
            ],
            "name" : "CubeAction.007",
            "samplers" : [
                {
                    "input" : 8,
                    "interpolation" : "LINEAR",
                    "output" : 9
                }
            ]
        }
    ],
    "materials" : [
        {
            "doubleSided" : true,
            "emissiveFactor" : [
                0,
                1,
                0.07851610636069184
            ],
            "name" : "Material.001",
            "pbrMetallicRoughness" : {
                "baseColorFactor" : [
                    0.800000011920929,
                    0.800000011920929,
                    0.800000011920929,
                    1
                ],
                "metallicFactor" : 0,
                "roughnessFactor" : 0.25229358673095703
            }
        }
    ],
    "meshes" : [
        {
            "name" : "Cube",
            "primitives" : [
                {
                    "attributes" : {
                        "POSITION" : 0,
                        "NORMAL" : 1,
                        "TEXCOORD_0" : 2
                    },
                    "indices" : 3
                },
                {
                    "attributes" : {
                        "POSITION" : 4,
                        "NORMAL" : 5,
                        "TEXCOORD_0" : 6
                    },
                    "indices" : 7,
                    "material" : 0
                }
            ]
        }
    ],
    "accessors" : [
        {
            "bufferView" : 0,
            "componentType" : 5126,
            "count" : 1231,
            "max" : [
                1,
                0.24465832114219666,
                1
            ],
            "min" : [
                -1,
                -0.19999998807907104,
                -1
            ],
            "type" : "VEC3"
        },
        {
            "bufferView" : 1,
            "componentType" : 5126,
            "count" : 1231,
            "type" : "VEC3"
        },
        {
            "bufferView" : 2,
            "componentType" : 5126,
            "count" : 1231,
            "type" : "VEC2"
        },
        {
            "bufferView" : 3,
            "componentType" : 5123,
            "count" : 1878,
            "type" : "SCALAR"
        },
        {
            "bufferView" : 4,
            "componentType" : 5126,
            "count" : 4,
            "max" : [
                -0.5459824204444885,
                0.24465832114219666,
                0.5840175747871399
            ],
            "min" : [
                -0.7840175628662109,
                0.24465832114219666,
                -0.5040175318717957
            ],
            "type" : "VEC3"
        },
        {
            "bufferView" : 5,
            "componentType" : 5126,
            "count" : 4,
            "type" : "VEC3"
        },
        {
            "bufferView" : 6,
            "componentType" : 5126,
            "count" : 4,
            "type" : "VEC2"
        },
        {
            "bufferView" : 7,
            "componentType" : 5123,
            "count" : 6,
            "type" : "SCALAR"
        },
        {
            "bufferView" : 8,
            "componentType" : 5126,
            "count" : 2,
            "max" : [
                47.61904761904762
            ],
            "min" : [
                0.009523809523809525
            ],
            "type" : "SCALAR"
        },
        {
            "bufferView" : 9,
            "componentType" : 5126,
            "count" : 2,
            "type" : "VEC4"
        }
    ],
    "bufferViews" : [
        {
            "buffer" : 0,
            "byteLength" : 14772,
            "byteOffset" : 0
        },
        {
            "buffer" : 0,
            "byteLength" : 14772,
            "byteOffset" : 14772
        },
        {
            "buffer" : 0,
            "byteLength" : 9848,
            "byteOffset" : 29544
        },
        {
            "buffer" : 0,
            "byteLength" : 3756,
            "byteOffset" : 39392
        },
        {
            "buffer" : 0,
            "byteLength" : 48,
            "byteOffset" : 43148
        },
        {
            "buffer" : 0,
            "byteLength" : 48,
            "byteOffset" : 43196
        },
        {
            "buffer" : 0,
            "byteLength" : 32,
            "byteOffset" : 43244
        },
        {
            "buffer" : 0,
            "byteLength" : 12,
            "byteOffset" : 43276
        },
        {
            "buffer" : 0,
            "byteLength" : 8,
            "byteOffset" : 43288
        },
        {
            "buffer" : 0,
            "byteLength" : 32,
            "byteOffset" : 43296
        }
    ],
    "buffers" : [
        {
            "byteLength" : 43328,
            "uri" : "v3model.bin"
        }
    ]
}
