{
    "asset" : {
        "generator" : "Khronos glTF Blender I/O v1.8.19",
        "version" : "2.0"
    },
    "scene" : 0,
    "scenes" : [
        {
            "name" : "Scene",
            "nodes" : [
                0,
                1,
                2,
                3,
                4,
                5,
                6,
                7
            ]
        }
    ],
    "nodes" : [
        {
            "mesh" : 0,
            "name" : "Tree03",
            "scale" : [
                1.2000000476837158,
                1.2000000476837158,
                1.5
            ]
        },
        {
            "mesh" : 1,
            "name" : "Tree03.001",
            "rotation" : [
                0,
                -0.708135724067688,
                0,
                0.7060763239860535
            ],
            "translation" : [
                -2.5711050033569336,
                0,
                2.0409369468688965
            ]
        },
        {
            "mesh" : 2,
            "name" : "Tree01",
            "scale" : [
                1.5,
                1.5,
                1.5
            ],
            "translation" : [
                7.222818374633789,
                0,
                2.2559916973114014
            ]
        },
        {
            "mesh" : 3,
            "name" : "Tree01.001",
            "translation" : [
                -3.01962947845459,
                0,
                5.217915058135986
            ]
        },
        {
            "mesh" : 4,
            "name" : "Tree01.002",
            "translation" : [
                3.2270493507385254,
                0,
                0
            ]
        },
        {
            "mesh" : 5,
            "name" : "Grid",
            "scale" : [
                2.342848777770996,
                1,
                3.183426856994629
            ],
            "translation" : [
                2.009760856628418,
                0,
                4.778800010681152
            ]
        },
        {
            "mesh" : 6,
            "name" : "Tree03.002",
            "rotation" : [
                0,
                0.5591493844985962,
                0,
                0.8290669322013855
            ],
            "scale" : [
                1.5,
                1.5,
                1.5
            ],
            "translation" : [
                -5.726762294769287,
                0,
                1.8309741020202637
            ]
        },
        {
            "mesh" : 7,
            "name" : "Tree03.003",
            "rotation" : [
                0,
                0.5591493844985962,
                0,
                0.8290669322013855
            ],
            "scale" : [
                1.5,
                1.5,
                1.5
            ],
            "translation" : [
                7.388031482696533,
                0,
                1.2329916954040527
            ]
        }
    ],
    "materials" : [
        {
            "doubleSided" : true,
            "name" : "MaterialTree03",
            "pbrMetallicRoughness" : {
                "baseColorTexture" : {
                    "index" : 0
                },
                "metallicFactor" : 0,
                "roughnessFactor" : 0.5
            }
        },
        {
            "doubleSided" : true,
            "name" : "MaterialTree03.001",
            "pbrMetallicRoughness" : {
                "baseColorTexture" : {
                    "index" : 1
                },
                "metallicFactor" : 0,
                "roughnessFactor" : 0.5
            }
        },
        {
            "doubleSided" : true,
            "name" : "MaterialTree01",
            "pbrMetallicRoughness" : {
                "baseColorTexture" : {
                    "index" : 2
                },
                "metallicFactor" : 0,
                "roughnessFactor" : 0.5
            }
        },
        {
            "doubleSided" : true,
            "name" : "MaterialTree01.001",
            "pbrMetallicRoughness" : {
                "baseColorTexture" : {
                    "index" : 3
                },
                "metallicFactor" : 0,
                "roughnessFactor" : 0.5
            }
        },
        {
            "doubleSided" : true,
            "name" : "MaterialTree01.002",
            "pbrMetallicRoughness" : {
                "baseColorTexture" : {
                    "index" : 4
                },
                "metallicFactor" : 0,
                "roughnessFactor" : 0.5
            }
        },
        {
            "doubleSided" : true,
            "name" : "Material.001",
            "pbrMetallicRoughness" : {
                "baseColorTexture" : {
                    "index" : 5
                },
                "roughnessFactor" : 0.5
            }
        },
        {
            "doubleSided" : true,
            "name" : "MaterialTree03.002",
            "pbrMetallicRoughness" : {
                "baseColorTexture" : {
                    "index" : 6
                },
                "metallicFactor" : 0,
                "roughnessFactor" : 0.5
            }
        },
        {
            "doubleSided" : true,
            "name" : "MaterialTree03.003",
            "pbrMetallicRoughness" : {
                "baseColorTexture" : {
                    "index" : 7
                },
                "metallicFactor" : 0,
                "roughnessFactor" : 0.5
            }
        }
    ],
    "meshes" : [
        {
            "name" : "Mesh",
            "primitives" : [
                {
                    "attributes" : {
                        "POSITION" : 0,
                        "NORMAL" : 1,
                        "TEXCOORD_0" : 2
                    },
                    "indices" : 3,
                    "material" : 0
                }
            ]
        },
        {
            "name" : "Circle.001",
            "primitives" : [
                {
                    "attributes" : {
                        "POSITION" : 4,
                        "NORMAL" : 5,
                        "TEXCOORD_0" : 6
                    },
                    "indices" : 7,
                    "material" : 1
                }
            ]
        },
        {
            "name" : "Cylinder",
            "primitives" : [
                {
                    "attributes" : {
                        "POSITION" : 8,
                        "NORMAL" : 9,
                        "TEXCOORD_0" : 10
                    },
                    "indices" : 11,
                    "material" : 2
                }
            ]
        },
        {
            "name" : "Cylinder.001",
            "primitives" : [
                {
                    "attributes" : {
                        "POSITION" : 12,
                        "NORMAL" : 13,
                        "TEXCOORD_0" : 14
                    },
                    "indices" : 15,
                    "material" : 3
                }
            ]
        },
        {
            "name" : "Cylinder.002",
            "primitives" : [
                {
                    "attributes" : {
                        "POSITION" : 16,
                        "NORMAL" : 17,
                        "TEXCOORD_0" : 18
                    },
                    "indices" : 15,
                    "material" : 4
                }
            ]
        },
        {
            "name" : "Mesh",
            "primitives" : [
                {
                    "attributes" : {
                        "POSITION" : 19,
                        "NORMAL" : 20,
                        "TEXCOORD_0" : 21
                    },
                    "indices" : 22,
                    "material" : 5
                }
            ]
        },
        {
            "name" : "Mesh",
            "primitives" : [
                {
                    "attributes" : {
                        "POSITION" : 23,
                        "NORMAL" : 24,
                        "TEXCOORD_0" : 25
                    },
                    "indices" : 3,
                    "material" : 6
                }
            ]
        },
        {
            "name" : "Mesh",
            "primitives" : [
                {
                    "attributes" : {
                        "POSITION" : 26,
                        "NORMAL" : 27,
                        "TEXCOORD_0" : 28
                    },
                    "indices" : 3,
                    "material" : 7
                }
            ]
        }
    ],
    "textures" : [
        {
            "sampler" : 0,
            "source" : 0
        },
        {
            "sampler" : 0,
            "source" : 1
        },
        {
            "sampler" : 0,
            "source" : 1
        },
        {
            "sampler" : 0,
            "source" : 1
        },
        {
            "sampler" : 0,
            "source" : 1
        },
        {
            "sampler" : 0,
            "source" : 2
        },
        {
            "sampler" : 0,
            "source" : 0
        },
        {
            "sampler" : 0,
            "source" : 0
        }
    ],
    "images" : [
        {
            "bufferView" : 4,
            "mimeType" : "image/png",
            "name" : "0.jpg"
        },
        {
            "bufferView" : 9,
            "mimeType" : "image/jpeg",
            "name" : "0"
        },
        {
            "bufferView" : 25,
            "mimeType" : "image/jpeg",
            "name" : "Water_001_COLOR"
        }
    ],
    "accessors" : [
        {
            "bufferView" : 0,
            "componentType" : 5126,
            "count" : 5160,
            "max" : [
                1.5068504810333252,
                6.09633731842041,
                1.8839607238769531
            ],
            "min" : [
                -1.9840024709701538,
                0.01718904823064804,
                -1.6056678295135498
            ],
            "type" : "VEC3"
        },
        {
            "bufferView" : 1,
            "componentType" : 5126,
            "count" : 5160,
            "type" : "VEC3"
        },
        {
            "bufferView" : 2,
            "componentType" : 5126,
            "count" : 5160,
            "type" : "VEC2"
        },
        {
            "bufferView" : 3,
            "componentType" : 5123,
            "count" : 7740,
            "type" : "SCALAR"
        },
        {
            "bufferView" : 5,
            "componentType" : 5126,
            "count" : 3577,
            "max" : [
                1.5068504810333252,
                6.09633731842041,
                1.8839607238769531
            ],
            "min" : [
                -1.9840024709701538,
                0.01718904823064804,
                -1.6056678295135498
            ],
            "type" : "VEC3"
        },
        {
            "bufferView" : 6,
            "componentType" : 5126,
            "count" : 3577,
            "type" : "VEC3"
        },
        {
            "bufferView" : 7,
            "componentType" : 5126,
            "count" : 3577,
            "type" : "VEC2"
        },
        {
            "bufferView" : 8,
            "componentType" : 5123,
            "count" : 7740,
            "type" : "SCALAR"
        },
        {
            "bufferView" : 10,
            "componentType" : 5126,
            "count" : 6869,
            "max" : [
                -3.8468244075775146,
                7.858773231506348,
                0.3062543272972107
            ],
            "min" : [
                -9.63223934173584,
                4.261591470822168e-07,
                -6.085858345031738
            ],
            "type" : "VEC3"
        },
        {
            "bufferView" : 11,
            "componentType" : 5126,
            "count" : 6869,
            "type" : "VEC3"
        },
        {
            "bufferView" : 12,
            "componentType" : 5126,
            "count" : 6869,
            "type" : "VEC2"
        },
        {
            "bufferView" : 13,
            "componentType" : 5123,
            "count" : 14256,
            "type" : "SCALAR"
        },
        {
            "bufferView" : 14,
            "componentType" : 5126,
            "count" : 6869,
            "max" : [
                2.7823870182037354,
                7.858772277832031,
                2.921999931335449
            ],
            "min" : [
                -3.00302791595459,
                0,
                -3.4701120853424072
            ],
            "type" : "VEC3"
        },
        {
            "bufferView" : 15,
            "componentType" : 5126,
            "count" : 6869,
            "type" : "VEC3"
        },
        {
            "bufferView" : 16,
            "componentType" : 5126,
            "count" : 6869,
            "type" : "VEC2"
        },
        {
            "bufferView" : 17,
            "componentType" : 5123,
            "count" : 14256,
            "type" : "SCALAR"
        },
        {
            "bufferView" : 18,
            "componentType" : 5126,
            "count" : 6869,
            "max" : [
                2.7823870182037354,
                7.858772277832031,
                2.921999931335449
            ],
            "min" : [
                -3.00302791595459,
                0,
                -3.4701120853424072
            ],
            "type" : "VEC3"
        },
        {
            "bufferView" : 19,
            "componentType" : 5126,
            "count" : 6869,
            "type" : "VEC3"
        },
        {
            "bufferView" : 20,
            "componentType" : 5126,
            "count" : 6869,
            "type" : "VEC2"
        },
        {
            "bufferView" : 21,
            "componentType" : 5126,
            "count" : 1600,
            "max" : [
                1.4186780452728271,
                0.15905949473381042,
                1.1279886960983276
            ],
            "min" : [
                -1.701543927192688,
                -0.18894897401332855,
                -1.0003072023391724
            ],
            "type" : "VEC3"
        },
        {
            "bufferView" : 22,
            "componentType" : 5126,
            "count" : 1600,
            "type" : "VEC3"
        },
        {
            "bufferView" : 23,
            "componentType" : 5126,
            "count" : 1600,
            "type" : "VEC2"
        },
        {
            "bufferView" : 24,
            "componentType" : 5123,
            "count" : 2400,
            "type" : "SCALAR"
        },
        {
            "bufferView" : 26,
            "componentType" : 5126,
            "count" : 5160,
            "max" : [
                1.5068504810333252,
                6.09633731842041,
                1.8839607238769531
            ],
            "min" : [
                -1.9840024709701538,
                0.01718904823064804,
                -1.6056678295135498
            ],
            "type" : "VEC3"
        },
        {
            "bufferView" : 27,
            "componentType" : 5126,
            "count" : 5160,
            "type" : "VEC3"
        },
        {
            "bufferView" : 28,
            "componentType" : 5126,
            "count" : 5160,
            "type" : "VEC2"
        },
        {
            "bufferView" : 29,
            "componentType" : 5126,
            "count" : 5160,
            "max" : [
                1.5068504810333252,
                6.09633731842041,
                1.8839607238769531
            ],
            "min" : [
                -1.9840024709701538,
                0.01718904823064804,
                -1.6056678295135498
            ],
            "type" : "VEC3"
        },
        {
            "bufferView" : 30,
            "componentType" : 5126,
            "count" : 5160,
            "type" : "VEC3"
        },
        {
            "bufferView" : 31,
            "componentType" : 5126,
            "count" : 5160,
            "type" : "VEC2"
        }
    ],
    "bufferViews" : [
        {
            "buffer" : 0,
            "byteLength" : 61920,
            "byteOffset" : 0
        },
        {
            "buffer" : 0,
            "byteLength" : 61920,
            "byteOffset" : 61920
        },
        {
            "buffer" : 0,
            "byteLength" : 41280,
            "byteOffset" : 123840
        },
        {
            "buffer" : 0,
            "byteLength" : 15480,
            "byteOffset" : 165120
        },
        {
            "buffer" : 0,
            "byteLength" : 77448,
            "byteOffset" : 180600
        },
        {
            "buffer" : 0,
            "byteLength" : 42924,
            "byteOffset" : 258048
        },
        {
            "buffer" : 0,
            "byteLength" : 42924,
            "byteOffset" : 300972
        },
        {
            "buffer" : 0,
            "byteLength" : 28616,
            "byteOffset" : 343896
        },
        {
            "buffer" : 0,
            "byteLength" : 15480,
            "byteOffset" : 372512
        },
        {
            "buffer" : 0,
            "byteLength" : 147567,
            "byteOffset" : 387992
        },
        {
            "buffer" : 0,
            "byteLength" : 82428,
            "byteOffset" : 535560
        },
        {
            "buffer" : 0,
            "byteLength" : 82428,
            "byteOffset" : 617988
        },
        {
            "buffer" : 0,
            "byteLength" : 54952,
            "byteOffset" : 700416
        },
        {
            "buffer" : 0,
            "byteLength" : 28512,
            "byteOffset" : 755368
        },
        {
            "buffer" : 0,
            "byteLength" : 82428,
            "byteOffset" : 783880
        },
        {
            "buffer" : 0,
            "byteLength" : 82428,
            "byteOffset" : 866308
        },
        {
            "buffer" : 0,
            "byteLength" : 54952,
            "byteOffset" : 948736
        },
        {
            "buffer" : 0,
            "byteLength" : 28512,
            "byteOffset" : 1003688
        },
        {
            "buffer" : 0,
            "byteLength" : 82428,
            "byteOffset" : 1032200
        },
        {
            "buffer" : 0,
            "byteLength" : 82428,
            "byteOffset" : 1114628
        },
        {
            "buffer" : 0,
            "byteLength" : 54952,
            "byteOffset" : 1197056
        },
        {
            "buffer" : 0,
            "byteLength" : 19200,
            "byteOffset" : 1252008
        },
        {
            "buffer" : 0,
            "byteLength" : 19200,
            "byteOffset" : 1271208
        },
        {
            "buffer" : 0,
            "byteLength" : 12800,
            "byteOffset" : 1290408
        },
        {
            "buffer" : 0,
            "byteLength" : 4800,
            "byteOffset" : 1303208
        },
        {
            "buffer" : 0,
            "byteLength" : 93945,
            "byteOffset" : 1308008
        },
        {
            "buffer" : 0,
            "byteLength" : 61920,
            "byteOffset" : 1401956
        },
        {
            "buffer" : 0,
            "byteLength" : 61920,
            "byteOffset" : 1463876
        },
        {
            "buffer" : 0,
            "byteLength" : 41280,
            "byteOffset" : 1525796
        },
        {
            "buffer" : 0,
            "byteLength" : 61920,
            "byteOffset" : 1567076
        },
        {
            "buffer" : 0,
            "byteLength" : 61920,
            "byteOffset" : 1628996
        },
        {
            "buffer" : 0,
            "byteLength" : 41280,
            "byteOffset" : 1690916
        }
    ],
    "samplers" : [
        {
            "magFilter" : 9729,
            "minFilter" : 9987
        }
    ],
    "buffers" : [
        {
            "byteLength" : 1732196,
            "uri" : "data:application/octet-stream;base64,"
        }
    ]
}
