{
    "asset" : {
        "generator" : "Khronos glTF Blender I/O v1.8.19",
        "version" : "2.0"
    },
    "scene" : 0,
    "scenes" : [
        {
            "name" : "Scene",
            "nodes" : [
                0,
                1,
                2,
                3,
                4,
                5
            ]
        }
    ],
    "nodes" : [
        {
            "mesh" : 0,
            "name" : "Tree03"
        },
        {
            "mesh" : 1,
            "name" : "Tree03.001",
            "rotation" : [
                0,
                -0.708135724067688,
                0,
                0.7060763239860535
            ],
            "translation" : [
                -2.5711050033569336,
                0,
                2.0409369468688965
            ]
        },
        {
            "mesh" : 2,
            "name" : "Tree01",
            "scale" : [
                1.5,
                1.5,
                1.5
            ],
            "translation" : [
                7.222818374633789,
                0,
                2.2559916973114014
            ]
        },
        {
            "mesh" : 3,
            "name" : "Tree01.001",
            "translation" : [
                -3.01962947845459,
                0,
                5.217915058135986
            ]
        },
        {
            "mesh" : 4,
            "name" : "Tree01.002",
            "translation" : [
                3.2270493507385254,
                0,
                0
            ]
        },
        {
            "mesh" : 5,
            "name" : "Grid",
            "scale" : [
                2.342848777770996,
                1,
                3.183426856994629
            ],
            "translation" : [
                2.009760856628418,
                0,
                4.778800010681152
            ]
        }
    ],
    "materials" : [
        {
            "doubleSided" : true,
            "name" : "MaterialTree03",
            "pbrMetallicRoughness" : {
                "baseColorTexture" : {
                    "index" : 0
                },
                "metallicFactor" : 0,
                "roughnessFactor" : 0.5
            }
        },
        {
            "doubleSided" : true,
            "name" : "MaterialTree03.001",
            "pbrMetallicRoughness" : {
                "baseColorTexture" : {
                    "index" : 1
                },
                "metallicFactor" : 0,
                "roughnessFactor" : 0.5
            }
        },
        {
            "doubleSided" : true,
            "name" : "MaterialTree01",
            "pbrMetallicRoughness" : {
                "baseColorTexture" : {
                    "index" : 2
                },
                "metallicFactor" : 0,
                "roughnessFactor" : 0.5
            }
        },
        {
            "doubleSided" : true,
            "name" : "MaterialTree01.001",
            "pbrMetallicRoughness" : {
                "baseColorTexture" : {
                    "index" : 3
                },
                "metallicFactor" : 0,
                "roughnessFactor" : 0.5
            }
        },
        {
            "doubleSided" : true,
            "name" : "MaterialTree01.002",
            "pbrMetallicRoughness" : {
                "baseColorTexture" : {
                    "index" : 4
                },
                "metallicFactor" : 0,
                "roughnessFactor" : 0.5
            }
        },
        {
            "doubleSided" : true,
            "name" : "Material.001",
            "pbrMetallicRoughness" : {
                "baseColorTexture" : {
                    "index" : 5
                },
                "roughnessFactor" : 0.5
            }
        }
    ],
    "meshes" : [
        {
            "name" : "Circle",
            "primitives" : [
                {
                    "attributes" : {
                        "POSITION" : 0,
                        "NORMAL" : 1,
                        "TEXCOORD_0" : 2
                    },
                    "indices" : 3,
                    "material" : 0
                }
            ]
        },
        {
            "name" : "Circle.001",
            "primitives" : [
                {
                    "attributes" : {
                        "POSITION" : 4,
                        "NORMAL" : 5,
                        "TEXCOORD_0" : 6
                    },
                    "indices" : 7,
                    "material" : 1
                }
            ]
        },
        {
            "name" : "Cylinder",
            "primitives" : [
                {
                    "attributes" : {
                        "POSITION" : 8,
                        "NORMAL" : 9,
                        "TEXCOORD_0" : 10
                    },
                    "indices" : 11,
                    "material" : 2
                }
            ]
        },
        {
            "name" : "Cylinder.001",
            "primitives" : [
                {
                    "attributes" : {
                        "POSITION" : 12,
                        "NORMAL" : 13,
                        "TEXCOORD_0" : 14
                    },
                    "indices" : 15,
                    "material" : 3
                }
            ]
        },
        {
            "name" : "Cylinder.002",
            "primitives" : [
                {
                    "attributes" : {
                        "POSITION" : 16,
                        "NORMAL" : 17,
                        "TEXCOORD_0" : 18
                    },
                    "indices" : 15,
                    "material" : 4
                }
            ]
        },
        {
            "name" : "Mesh",
            "primitives" : [
                {
                    "attributes" : {
                        "POSITION" : 19,
                        "NORMAL" : 20,
                        "TEXCOORD_0" : 21
                    },
                    "indices" : 22,
                    "material" : 5
                }
            ]
        }
    ],
    "textures" : [
        {
            "sampler" : 0,
            "source" : 0
        },
        {
            "sampler" : 0,
            "source" : 1
        },
        {
            "sampler" : 0,
            "source" : 1
        },
        {
            "sampler" : 0,
            "source" : 1
        },
        {
            "sampler" : 0,
            "source" : 1
        },
        {
            "sampler" : 0,
            "source" : 2
        }
    ],
    "images" : [
        {
            "bufferView" : 4,
            "mimeType" : "image/png",
            "name" : "0.jpg"
        },
        {
            "bufferView" : 9,
            "mimeType" : "image/jpeg",
            "name" : "0"
        },
        {
            "bufferView" : 25,
            "mimeType" : "image/jpeg",
            "name" : "Water_001_COLOR"
        }
    ],
    "accessors" : [
        {
            "bufferView" : 0,
            "componentType" : 5126,
            "count" : 1290,
            "max" : [
                1.7603850364685059,
                6.471851825714111,
                2.114971876144409
            ],
            "min" : [
                -2.2847814559936523,
                0.008440240286290646,
                -1.8231785297393799
            ],
            "type" : "VEC3"
        },
        {
            "bufferView" : 1,
            "componentType" : 5126,
            "count" : 1290,
            "type" : "VEC3"
        },
        {
            "bufferView" : 2,
            "componentType" : 5126,
            "count" : 1290,
            "type" : "VEC2"
        },
        {
            "bufferView" : 3,
            "componentType" : 5123,
            "count" : 1290,
            "type" : "SCALAR"
        },
        {
            "bufferView" : 5,
            "componentType" : 5126,
            "count" : 1248,
            "max" : [
                1.7603850364685059,
                6.471851825714111,
                2.114971876144409
            ],
            "min" : [
                -2.2847814559936523,
                0.008440240286290646,
                -1.8231785297393799
            ],
            "type" : "VEC3"
        },
        {
            "bufferView" : 6,
            "componentType" : 5126,
            "count" : 1248,
            "type" : "VEC3"
        },
        {
            "bufferView" : 7,
            "componentType" : 5126,
            "count" : 1248,
            "type" : "VEC2"
        },
        {
            "bufferView" : 8,
            "componentType" : 5123,
            "count" : 1290,
            "type" : "SCALAR"
        },
        {
            "bufferView" : 10,
            "componentType" : 5126,
            "count" : 2330,
            "max" : [
                -3.8104000091552734,
                7.934622287750244,
                0.3860410451889038
            ],
            "min" : [
                -9.657295227050781,
                4.2615909023879794e-07,
                -6.1762189865112305
            ],
            "type" : "VEC3"
        },
        {
            "bufferView" : 11,
            "componentType" : 5126,
            "count" : 2330,
            "type" : "VEC3"
        },
        {
            "bufferView" : 12,
            "componentType" : 5126,
            "count" : 2330,
            "type" : "VEC2"
        },
        {
            "bufferView" : 13,
            "componentType" : 5123,
            "count" : 2376,
            "type" : "SCALAR"
        },
        {
            "bufferView" : 14,
            "componentType" : 5126,
            "count" : 2328,
            "max" : [
                2.818810224533081,
                7.934621810913086,
                3.001786708831787
            ],
            "min" : [
                -3.0280849933624268,
                0,
                -3.5604732036590576
            ],
            "type" : "VEC3"
        },
        {
            "bufferView" : 15,
            "componentType" : 5126,
            "count" : 2328,
            "type" : "VEC3"
        },
        {
            "bufferView" : 16,
            "componentType" : 5126,
            "count" : 2328,
            "type" : "VEC2"
        },
        {
            "bufferView" : 17,
            "componentType" : 5123,
            "count" : 2376,
            "type" : "SCALAR"
        },
        {
            "bufferView" : 18,
            "componentType" : 5126,
            "count" : 2328,
            "max" : [
                2.818810224533081,
                7.934621810913086,
                3.001786708831787
            ],
            "min" : [
                -3.0280849933624268,
                0,
                -3.5604732036590576
            ],
            "type" : "VEC3"
        },
        {
            "bufferView" : 19,
            "componentType" : 5126,
            "count" : 2328,
            "type" : "VEC3"
        },
        {
            "bufferView" : 20,
            "componentType" : 5126,
            "count" : 2328,
            "type" : "VEC2"
        },
        {
            "bufferView" : 21,
            "componentType" : 5126,
            "count" : 25600,
            "max" : [
                1.4186780452728271,
                0.16151046752929688,
                1.1306796073913574
            ],
            "min" : [
                -1.7038873434066772,
                -0.18894897401332855,
                -1.0003072023391724
            ],
            "type" : "VEC3"
        },
        {
            "bufferView" : 22,
            "componentType" : 5126,
            "count" : 25600,
            "type" : "VEC3"
        },
        {
            "bufferView" : 23,
            "componentType" : 5126,
            "count" : 25600,
            "type" : "VEC2"
        },
        {
            "bufferView" : 24,
            "componentType" : 5123,
            "count" : 38400,
            "type" : "SCALAR"
        }
    ],
    "bufferViews" : [
        {
            "buffer" : 0,
            "byteLength" : 15480,
            "byteOffset" : 0
        },
        {
            "buffer" : 0,
            "byteLength" : 15480,
            "byteOffset" : 15480
        },
        {
            "buffer" : 0,
            "byteLength" : 10320,
            "byteOffset" : 30960
        },
        {
            "buffer" : 0,
            "byteLength" : 2580,
            "byteOffset" : 41280
        },
        {
            "buffer" : 0,
            "byteLength" : 77448,
            "byteOffset" : 43860
        },
        {
            "buffer" : 0,
            "byteLength" : 14976,
            "byteOffset" : 121308
        },
        {
            "buffer" : 0,
            "byteLength" : 14976,
            "byteOffset" : 136284
        },
        {
            "buffer" : 0,
            "byteLength" : 9984,
            "byteOffset" : 151260
        },
        {
            "buffer" : 0,
            "byteLength" : 2580,
            "byteOffset" : 161244
        },
        {
            "buffer" : 0,
            "byteLength" : 147567,
            "byteOffset" : 163824
        },
        {
            "buffer" : 0,
            "byteLength" : 27960,
            "byteOffset" : 311392
        },
        {
            "buffer" : 0,
            "byteLength" : 27960,
            "byteOffset" : 339352
        },
        {
            "buffer" : 0,
            "byteLength" : 18640,
            "byteOffset" : 367312
        },
        {
            "buffer" : 0,
            "byteLength" : 4752,
            "byteOffset" : 385952
        },
        {
            "buffer" : 0,
            "byteLength" : 27936,
            "byteOffset" : 390704
        },
        {
            "buffer" : 0,
            "byteLength" : 27936,
            "byteOffset" : 418640
        },
        {
            "buffer" : 0,
            "byteLength" : 18624,
            "byteOffset" : 446576
        },
        {
            "buffer" : 0,
            "byteLength" : 4752,
            "byteOffset" : 465200
        },
        {
            "buffer" : 0,
            "byteLength" : 27936,
            "byteOffset" : 469952
        },
        {
            "buffer" : 0,
            "byteLength" : 27936,
            "byteOffset" : 497888
        },
        {
            "buffer" : 0,
            "byteLength" : 18624,
            "byteOffset" : 525824
        },
        {
            "buffer" : 0,
            "byteLength" : 307200,
            "byteOffset" : 544448
        },
        {
            "buffer" : 0,
            "byteLength" : 307200,
            "byteOffset" : 851648
        },
        {
            "buffer" : 0,
            "byteLength" : 204800,
            "byteOffset" : 1158848
        },
        {
            "buffer" : 0,
            "byteLength" : 76800,
            "byteOffset" : 1363648
        },
        {
            "buffer" : 0,
            "byteLength" : 93945,
            "byteOffset" : 1440448
        }
    ],
    "samplers" : [
        {
            "magFilter" : 9729,
            "minFilter" : 9987
        }
    ],
    "buffers" : [
        {
            "byteLength" : 1534396,
            "uri" : "data:application/octet-stream;base64,"
        }
    ]
}
